<?xml version="1.0" encoding="UTF-8" standalone="no"?>
<!-- Created with Inkscape (http://www.inkscape.org/) -->

<svg
   xmlns:dc="http://purl.org/dc/elements/1.1/"
   xmlns:cc="http://creativecommons.org/ns#"
   xmlns:rdf="http://www.w3.org/1999/02/22-rdf-syntax-ns#"
   xmlns:svg="http://www.w3.org/2000/svg"
   xmlns="http://www.w3.org/2000/svg"
   xmlns:sodipodi="http://sodipodi.sourceforge.net/DTD/sodipodi-0.dtd"
   xmlns:inkscape="http://www.inkscape.org/namespaces/inkscape"
   width="210mm"
   height="297mm"
   viewBox="0 0 210 297"
   version="1.1"
   id="svg8"
   inkscape:version="0.92.3 (2405546, 2018-03-11)"
   sodipodi:docname="touchscreen_press_silicone.svg">
  <defs
     id="defs2">
    <clipPath
       clipPathUnits="userSpaceOnUse"
       id="clipPath883">
      <rect
         style="fill:none;fill-opacity:1;stroke:#000000;stroke-width:1;stroke-miterlimit:4;stroke-dasharray:none;stroke-opacity:1"
         id="rect885"
         width="35.860493"
         height="31.41927"
         x="52.113464"
         y="98.893227" />
    </clipPath>
    <clipPath
       clipPathUnits="userSpaceOnUse"
       id="clipPath887">
      <rect
         style="fill:none;fill-opacity:1;stroke:#000000;stroke-width:1;stroke-miterlimit:4;stroke-dasharray:none;stroke-opacity:1"
         id="rect889"
         width="35.860493"
         height="31.41927"
         x="52.113464"
         y="98.893227" />
    </clipPath>
    <clipPath
       clipPathUnits="userSpaceOnUse"
       id="clipPath891">
      <rect
         style="fill:none;fill-opacity:1;stroke:#000000;stroke-width:1;stroke-miterlimit:4;stroke-dasharray:none;stroke-opacity:1"
         id="rect893"
         width="35.860493"
         height="31.41927"
         x="52.113464"
         y="98.893227" />
    </clipPath>
    <clipPath
       clipPathUnits="userSpaceOnUse"
       id="clipPath895">
      <rect
         style="fill:none;fill-opacity:1;stroke:#000000;stroke-width:1;stroke-miterlimit:4;stroke-dasharray:none;stroke-opacity:1"
         id="rect897"
         width="35.860493"
         height="31.41927"
         x="52.113464"
         y="98.893227" />
    </clipPath>
    <clipPath
       clipPathUnits="userSpaceOnUse"
       id="clipPath899">
      <rect
         style="fill:none;fill-opacity:1;stroke:#000000;stroke-width:1;stroke-miterlimit:4;stroke-dasharray:none;stroke-opacity:1"
         id="rect901"
         width="35.860493"
         height="31.41927"
         x="52.113464"
         y="98.893227" />
    </clipPath>
  </defs>
  <sodipodi:namedview
     id="base"
     pagecolor="#ffffff"
     bordercolor="#666666"
     borderopacity="1.0"
     inkscape:pageopacity="0.0"
     inkscape:pageshadow="2"
     inkscape:zoom="4"
     inkscape:cx="300.02093"
     inkscape:cy="658.40683"
     inkscape:document-units="mm"
     inkscape:current-layer="layer1"
     showgrid="false"
     inkscape:window-width="1920"
     inkscape:window-height="1137"
     inkscape:window-x="-8"
     inkscape:window-y="-8"
     inkscape:window-maximized="1" />
  <metadata
     id="metadata5">
    <rdf:RDF>
      <cc:Work
         rdf:about="">
        <dc:format>image/svg+xml</dc:format>
        <dc:type
           rdf:resource="http://purl.org/dc/dcmitype/StillImage" />
        <dc:title></dc:title>
      </cc:Work>
    </rdf:RDF>
  </metadata>
  <g
     inkscape:label="Calque 1"
     inkscape:groupmode="layer"
     id="layer1">
    <path
       style="fill:none;stroke:#000000;stroke-width:0.17178531px;stroke-linecap:butt;stroke-linejoin:miter;stroke-opacity:1"
       d="m 54.904443,124.4107 13.178645,0.004 c 1.056641,0.79361 2.841575,0.87302 3.676668,6.3e-4 l 36.999504,-0.005"
       id="path815-2"
       inkscape:connector-curvature="0"
       sodipodi:nodetypes="cccc"
       clip-path="url(#clipPath899)"
       inkscape:export-xdpi="400"
       inkscape:export-ydpi="400" />
    <path
       style="fill:#000000;stroke-width:0.04684609"
       d="m 62.370251,113.41224 c 0.07481,-1.39203 0.322248,-2.44213 0.768605,-3.2619 0.204282,-0.37518 0.607568,-0.85724 0.718266,-0.85857 0.03047,-3.7e-4 0.110085,-0.0395 0.176933,-0.087 l 0.121543,-0.0863 0.03298,-1.23881 c 0.03044,-1.14282 0.03954,-1.23847 0.117607,-1.23449 0.04654,0.002 1.455864,0.0162 3.131831,0.0309 l 3.047207,0.0266 -0.0074,1.03793 c -0.0055,0.77599 0.0078,1.04943 0.05276,1.08351 0.03307,0.0251 0.168873,0.06 0.301769,0.0776 0.279681,0.037 0.693772,0.183 0.951993,0.33558 0.09882,0.0584 0.199678,0.10629 0.224125,0.10645 0.09189,5.8e-4 0.856485,0.76901 1.091144,1.09663 0.484849,0.67692 0.76593,1.31066 1.028725,2.31943 0.143769,0.55187 0.147878,0.5978 0.144231,1.61157 -0.0033,0.87006 -0.01849,1.09243 -0.09242,1.33786 -0.297801,0.98867 -0.698291,1.5397 -1.32972,1.82952 -0.198688,0.0912 -0.349301,0.11719 -0.823323,0.14201 l -0.580147,0.0304 -0.04708,3.22104 c -0.0526,3.59948 -0.02818,3.37475 -0.402779,3.70351 -0.244515,0.21458 -0.524305,0.30602 -0.928685,0.30349 -0.409994,-0.002 -0.676888,-0.10507 -0.948555,-0.36432 -0.353361,-0.33721 -0.355399,-0.35439 -0.337684,-2.84758 0.01612,-2.27023 0.01467,-2.28827 -0.174525,-2.13272 -0.09681,0.0796 -0.556844,0.2051 -0.747449,0.20391 -0.279753,-0.002 -0.667519,-0.1559 -0.906951,-0.36053 -0.12835,-0.1097 -0.233189,-0.22429 -0.232974,-0.25464 2.18e-4,-0.0303 -0.02698,-0.0908 -0.06046,-0.13433 -0.05678,-0.0738 -0.08028,-0.0701 -0.351095,0.0566 -0.248531,0.11627 -0.344194,0.13553 -0.665638,0.13401 -0.410391,-0.002 -0.675698,-0.0893 -0.917031,-0.30204 -0.272754,-0.24041 -0.36067,-0.45095 -0.397332,-0.95151 -0.0258,-0.35216 -0.04478,-0.4048 -0.128163,-0.35533 -0.225842,0.13403 -1.003851,0.20394 -1.073608,0.0965 -0.01626,-0.0251 -0.0679,-0.0458 -0.114749,-0.0461 -0.128161,-7.5e-4 -0.479571,-0.30762 -0.568055,-0.49598 -0.07924,-0.16867 -0.08799,-0.35731 -0.107154,-2.30989 -0.0039,-0.39305 0.01108,-1.05141 0.0332,-1.46301 z m 0.411667,0.61008 c 0.02177,0.0128 0.10355,-0.009 0.181734,-0.048 0.206474,-0.10361 0.636961,-0.14915 0.892074,-0.0944 0.27533,0.0591 0.5579,0.24347 0.71129,0.46406 0.127682,0.18362 0.204824,0.21137 0.298188,0.10728 0.103454,-0.11535 0.669376,-0.26054 0.920973,-0.23628 0.271974,0.0263 0.59852,0.16854 0.822033,0.35824 0.180081,0.15284 0.218351,0.16376 0.274934,0.0784 0.129676,-0.19557 0.69742,-0.43551 1.02565,-0.43346 0.303645,0.002 0.684465,0.14973 0.933056,0.3622 l 0.235128,0.20096 0.349139,-0.0309 c 0.192028,-0.0169 0.634987,-0.0264 0.984357,-0.0211 0.88631,0.0135 0.889494,-0.0688 0.0217,-0.56115 -1.59432,-0.90463 -2.57864,-1.74412 -2.995025,-2.55436 -0.198407,-0.38607 -0.332996,-0.82618 -0.3092,-1.01107 0.01517,-0.11767 0.03558,-0.13242 0.182304,-0.1315 l 0.165246,7.6e-4 0.06566,0.318 c 0.03611,0.17491 0.08575,0.33753 0.110312,0.36139 0.02458,0.0239 0.04446,0.0714 0.04421,0.10576 -9.63e-4,0.12299 0.445608,0.72247 0.78303,1.05136 0.563332,0.54908 1.364312,1.10355 2.517637,1.74281 0.332102,0.18407 0.473942,0.3791 0.472027,0.64902 -9.63e-4,0.14357 -0.03108,0.24099 -0.09432,0.30567 -0.08814,0.0901 -0.13901,0.0946 -1.009452,0.0892 -0.900605,-0.005 -1.104156,0.0159 -1.70586,0.1805 -0.790224,0.21617 -1.220581,0.72648 -1.185455,1.40569 0.01169,0.22582 0.0385,0.32688 0.09767,0.36804 0.116179,0.0808 1.567012,0.14797 1.659639,0.0768 0.10066,-0.0773 0.09109,-0.39127 -0.01348,-0.44247 -0.04639,-0.0227 -0.275135,-0.0545 -0.508311,-0.0707 -0.233176,-0.0162 -0.445221,-0.0419 -0.471214,-0.0572 -0.026,-0.0153 -0.04676,-0.0981 -0.04615,-0.18391 l 9.63e-4,-0.15611 0.278095,0.005 c 0.152953,0.003 0.473823,0.0306 0.713044,0.0612 l 0.434948,0.0555 0.02973,0.40127 c 0.01635,0.2207 0.04309,0.41397 0.05943,0.42951 0.04574,0.0435 1.06932,0.0993 1.997197,0.10893 0.812527,0.008 0.840595,0.005 1.029227,-0.10448 0.298892,-0.17437 0.381239,-0.24831 0.589849,-0.52963 0.237837,-0.32072 0.394194,-0.69858 0.508803,-1.22955 0.07132,-0.33044 0.08382,-0.55661 0.06768,-1.22459 -0.0109,-0.45061 -0.04444,-0.91132 -0.07455,-1.0238 -0.03009,-0.11248 -0.09892,-0.37833 -0.152916,-0.59078 -0.299562,-1.17862 -1.002112,-2.2801 -1.819204,-2.85221 -0.369252,-0.25854 -0.926892,-0.45843 -1.398644,-0.50135 l -0.374636,-0.0341 0.0075,-1.0623 0.0075,-1.0623 -2.757049,-0.0172 -2.757049,-0.0172 -0.0085,1.20228 c -0.0078,1.09056 -0.01601,1.20222 -0.08894,1.20177 -0.285816,-0.002 -0.822746,0.52232 -1.085346,1.05943 -0.208657,0.42677 -0.239735,0.51297 -0.367237,1.01855 -0.202629,0.80348 -0.365608,2.44328 -0.24962,2.51152 z m 0.101897,3.08798 c 0.07599,0.0947 0.210586,0.20108 0.299087,0.23642 0.368291,0.14704 0.837885,0.0273 1.032159,-0.2632 0.09703,-0.14509 0.103145,-0.215 0.1106,-1.26439 0.0076,-1.07732 0.0047,-1.11541 -0.100024,-1.2632 -0.242269,-0.3421 -0.75721,-0.43667 -1.145196,-0.21031 -0.107947,0.063 -0.196628,0.11935 -0.197071,0.12527 -4.3e-4,0.006 -0.03349,0.0922 -0.07343,0.19179 -0.05767,0.14375 -0.07177,0.39672 -0.06846,1.22824 l 0.0042,1.04721 z m 1.984296,1.40632 c 0.175607,0.2411 0.424983,0.35839 0.766513,0.36053 0.451736,0.003 0.75664,-0.19087 0.875034,-0.5559 0.09176,-0.28289 0.123904,-2.79736 0.03951,-3.09074 -0.115531,-0.40162 -0.420401,-0.61514 -0.882463,-0.61803 -0.342768,-0.002 -0.610535,0.10574 -0.758872,0.30574 -0.113782,0.15341 -0.118501,0.1923 -0.154417,1.27307 -0.02038,0.61315 -0.03273,1.34625 -0.02745,1.62909 0.0089,0.47762 0.01905,0.52725 0.142139,0.69624 z m 2.233771,0.51154 c 0.138346,0.20767 0.342883,0.33445 0.629216,0.39003 0.365615,0.071 0.922661,-0.2333 1.021244,-0.55782 0.07294,-0.24009 0.07412,-1.24679 0.0017,-1.31578 -0.03963,-0.0376 -0.280596,-0.0562 -0.770667,-0.0592 -0.417389,-0.002 -0.725126,-0.0231 -0.742226,-0.0494 -0.07363,-0.11343 -0.165568,-0.57638 -0.163801,-0.82483 0.0038,-0.53019 0.240169,-1.01859 0.62487,-1.29094 0.232588,-0.16467 0.65796,-0.37318 0.759988,-0.37255 0.04295,2.7e-4 0.07836,-0.0355 0.07867,-0.0795 6.6e-4,-0.0972 -0.32502,-0.2436 -0.602715,-0.27097 -0.298598,-0.0294 -0.692025,0.17228 -0.835864,0.42855 -0.11095,0.19767 -0.111944,0.21361 -0.124622,1.998 l -0.01278,1.79873 z m 2.141997,5.07967 c 0.103405,0.1932 0.204114,0.28657 0.423209,0.39236 0.191718,0.0926 0.590837,0.0987 0.814853,0.0126 0.197207,-0.0758 0.45952,-0.32521 0.46032,-0.43759 3.03e-4,-0.0429 0.02239,-0.0904 0.04912,-0.10569 0.05915,-0.0338 0.110543,-6.186 0.0524,-6.27321 -0.041,-0.0615 -1.640216,-0.18774 -1.775149,-0.14014 -0.06006,0.0212 -0.07319,0.47551 -0.09257,3.20374 -0.02154,3.02999 -0.01837,3.18697 0.06781,3.34795 z"
       id="path843"
       inkscape:connector-curvature="0"
       clip-path="url(#clipPath895)"
       inkscape:export-xdpi="400"
       inkscape:export-ydpi="400" />
    <path
       style="fill:none;stroke:#000000;stroke-width:0.17178531px;stroke-linecap:butt;stroke-linejoin:miter;stroke-opacity:1"
       d="m 54.904443,125.43843 13.178645,0.004 c 1.056641,0.79361 2.841575,0.87302 3.676668,6.3e-4 l 36.999504,-0.005"
       id="path815-2-0"
       inkscape:connector-curvature="0"
       sodipodi:nodetypes="cccc"
       clip-path="url(#clipPath891)"
       inkscape:export-xdpi="400"
       inkscape:export-ydpi="400" />
    <path
       style="fill:none;stroke:#000000;stroke-width:0.17178531px;stroke-linecap:butt;stroke-linejoin:miter;stroke-opacity:1"
       d="m 54.904443,126.46616 13.178645,0.004 c 1.056641,0.79361 2.841575,0.87302 3.676668,6.3e-4 l 36.999494,-0.005"
       id="path815-2-0-1"
       inkscape:connector-curvature="0"
       sodipodi:nodetypes="cccc"
       clip-path="url(#clipPath887)"
       inkscape:export-xdpi="400"
       inkscape:export-ydpi="400" />
    <path
       style="fill:none;stroke:#000000;stroke-width:0.17178531px;stroke-linecap:butt;stroke-linejoin:miter;stroke-opacity:1"
       d="m 54.904443,127.49388 53.854817,-3.7e-4"
       id="path815-2-0-6"
       inkscape:connector-curvature="0"
       sodipodi:nodetypes="cc"
       clip-path="url(#clipPath883)"
       inkscape:export-xdpi="400"
       inkscape:export-ydpi="400" />
    <path
       style="fill:#808000;fill-opacity:1;stroke:#000000;stroke-width:0.17807204;stroke-miterlimit:4;stroke-dasharray:none;stroke-opacity:1"
       d="m 69.274235,125.85914 c -0.354096,-0.0878 -0.792658,-0.27408 -1.009456,-0.42887 -0.133461,-0.0953 -0.174884,-0.0959 -6.702395,-0.0959 H 54.99428 v -0.40102 -0.40102 h 6.512941 6.51294 l 0.344731,0.18581 c 1.049502,0.56569 2.452147,0.55592 3.207432,-0.0223 l 0.213492,-0.16345 h 8.048532 8.048529 v 0.40101 0.40103 h -8.098309 -8.098313 l -0.160434,0.14124 c -0.487618,0.4293 -1.423555,0.58872 -2.251586,0.38351 z"
       id="path907"
       inkscape:connector-curvature="0"
       inkscape:export-xdpi="400"
       inkscape:export-ydpi="400" />
    <path
       style="fill:#808000;fill-opacity:1;stroke:#000000;stroke-width:0.17822391;stroke-miterlimit:4;stroke-dasharray:none;stroke-opacity:1"
       d="m 54.992894,126.96602 v -0.40171 h 6.520994 c 6.501989,0 6.521392,2.6e-4 6.656671,0.097 0.23264,0.16641 0.710203,0.3613 1.094571,0.44672 0.279987,0.0622 0.500953,0.0764 0.917488,0.0587 0.647946,-0.0275 0.93827,-0.11258 1.366525,-0.40056 l 0.300296,-0.20192 h 8.015883 8.015881 v 0.40171 0.40171 H 71.437049 54.992894 Z"
       id="path909"
       inkscape:connector-curvature="0"
       inkscape:export-xdpi="400"
       inkscape:export-ydpi="400" />
    <text
       xml:space="preserve"
       style="font-style:normal;font-weight:normal;font-size:10.58333302px;line-height:1.25;font-family:sans-serif;letter-spacing:0px;word-spacing:0px;fill:#000000;fill-opacity:1;stroke:none;stroke-width:0.26458332"
       x="75.044724"
       y="120.47398"
       id="text913"
       inkscape:export-xdpi="400"
       inkscape:export-ydpi="400"><tspan
         sodipodi:role="line"
         id="tspan911"
         x="75.044724"
         y="120.47398"
         style="font-size:1.41111112px;stroke-width:0.26458332">Silicone non conducteur</tspan></text>
    <path
       style="fill:none;stroke:#000000;stroke-width:0.265;stroke-linecap:round;stroke-linejoin:round;stroke-opacity:1;stroke-miterlimit:4;stroke-dasharray:none"
       d="m 77.059895,124.85547 3.756139,-3.99238 -1.677269,6.07125"
       id="path915"
       inkscape:connector-curvature="0"
       inkscape:export-xdpi="400"
       inkscape:export-ydpi="400" />
    <text
       xml:space="preserve"
       style="font-style:normal;font-weight:normal;font-size:10.58333302px;line-height:1.25;font-family:sans-serif;letter-spacing:0px;word-spacing:0px;fill:#000000;fill-opacity:1;stroke:none;stroke-width:0.26458332"
       x="52.788311"
       y="121.57746"
       id="text913-3"
       inkscape:export-xdpi="400"
       inkscape:export-ydpi="400"><tspan
         sodipodi:role="line"
         x="52.788311"
         y="121.57746"
         style="font-size:1.41111112px;stroke-width:0.26458332"
         id="tspan943">Silicone conducteur</tspan></text>
    <path
       style="fill:none;stroke:#000000;stroke-width:0.265;stroke-linecap:round;stroke-linejoin:miter;stroke-opacity:1;stroke-miterlimit:4;stroke-dasharray:none"
       d="m 60.402914,125.9642 -1.520098,-4.04245"
       id="path947"
       inkscape:connector-curvature="0"
       inkscape:export-xdpi="400"
       inkscape:export-ydpi="400" />
    <rect
       style="fill:none;fill-opacity:1;stroke:#000000;stroke-width:0.17797101;stroke-linecap:butt;stroke-linejoin:miter;stroke-miterlimit:4;stroke-dasharray:none;stroke-opacity:1"
       id="rect949"
       width="32.894451"
       height="0.89948732"
       x="54.987949"
       y="127.4521"
       inkscape:export-xdpi="400"
       inkscape:export-ydpi="400" />
    <text
       xml:space="preserve"
       style="font-style:normal;font-weight:normal;font-size:10.58333302px;line-height:1.25;font-family:sans-serif;letter-spacing:0px;word-spacing:0px;fill:#000000;fill-opacity:1;stroke:none;stroke-width:0.26458332"
       x="57.209358"
       y="131.11668"
       id="text913-3-7"
       inkscape:export-xdpi="400"
       inkscape:export-ydpi="400"><tspan
         sodipodi:role="line"
         x="57.209358"
         y="131.11668"
         style="font-size:1.41111112px;stroke-width:0.26458332"
         id="tspan943-5">Dalle tactile</tspan></text>
    <path
       style="fill:none;stroke:#000000;stroke-width:0.26458332px;stroke-linecap:round;stroke-linejoin:miter;stroke-opacity:1"
       d="m 61.071087,129.85632 3.908817,-1.87089"
       id="path969"
       inkscape:connector-curvature="0"
       inkscape:export-xdpi="400"
       inkscape:export-ydpi="400" />
    <path
       style="fill:none;stroke:#000000;stroke-width:0.14569166px;stroke-linecap:butt;stroke-linejoin:miter;stroke-opacity:1"
       d="m 54.976408,126.70453 3.82e-4,-1.2692"
       id="path971"
       inkscape:connector-curvature="0"
       inkscape:export-xdpi="400"
       inkscape:export-ydpi="400" />
    <path
       style="fill:none;stroke:#000000;stroke-width:0.14569166px;stroke-linecap:butt;stroke-linejoin:miter;stroke-opacity:1"
       d="m 87.897286,126.45952 3.82e-4,-1.2692"
       id="path971-5"
       inkscape:connector-curvature="0"
       inkscape:export-xdpi="400"
       inkscape:export-ydpi="400" />
    <g
       id="g1023"
       inkscape:export-xdpi="400"
       inkscape:export-ydpi="400">
      <g
         transform="translate(-0.04092565,-0.03507913)"
         id="g1013">
        <path
           style="fill:none;stroke:#000000;stroke-width:0.15000001;stroke-linecap:butt;stroke-linejoin:miter;stroke-miterlimit:4;stroke-dasharray:none;stroke-opacity:1"
           d="m 89.763206,127.83879 0.734216,-0.006"
           id="path1001"
           inkscape:connector-curvature="0" />
        <path
           style="fill:none;stroke:#000000;stroke-width:0.15000001;stroke-linecap:butt;stroke-linejoin:miter;stroke-miterlimit:4;stroke-dasharray:none;stroke-opacity:1"
           d="m 89.520478,127.49656 1.192536,-0.002"
           id="path1003"
           inkscape:connector-curvature="0" />
        <path
           style="fill:none;stroke:#000000;stroke-width:0.15000001;stroke-linecap:butt;stroke-linejoin:miter;stroke-miterlimit:4;stroke-dasharray:none;stroke-opacity:1"
           d="m 89.350114,127.15131 1.563414,0.002"
           id="path1005"
           inkscape:connector-curvature="0" />
        <path
           style="fill:none;stroke:#000000;stroke-width:0.15000001;stroke-linecap:butt;stroke-linejoin:miter;stroke-miterlimit:4;stroke-dasharray:none;stroke-opacity:1"
           d="m 90.11599,126.04773 v 1.1066"
           id="path1007"
           inkscape:connector-curvature="0" />
      </g>
      <path
         sodipodi:nodetypes="cc"
         inkscape:connector-curvature="0"
         id="path1015"
         d="m 90.145222,126.08866 -2.254474,-0.006"
         style="fill:none;stroke:#000000;stroke-width:0.15000001;stroke-linecap:butt;stroke-linejoin:miter;stroke-miterlimit:4;stroke-dasharray:none;stroke-opacity:1" />
    </g>
  </g>
</svg>
