<?xml version="1.0" encoding="UTF-8" standalone="no"?>
<!-- Created with Inkscape (http://www.inkscape.org/) -->

<svg
   xmlns:dc="http://purl.org/dc/elements/1.1/"
   xmlns:cc="http://creativecommons.org/ns#"
   xmlns:rdf="http://www.w3.org/1999/02/22-rdf-syntax-ns#"
   xmlns:svg="http://www.w3.org/2000/svg"
   xmlns="http://www.w3.org/2000/svg"
   xmlns:sodipodi="http://sodipodi.sourceforge.net/DTD/sodipodi-0.dtd"
   xmlns:inkscape="http://www.inkscape.org/namespaces/inkscape"
   width="210mm"
   height="297mm"
   viewBox="0 0 210 297"
   version="1.1"
   id="svg8"
   inkscape:version="0.92.3 (2405546, 2018-03-11)"
   sodipodi:docname="touchscreen_silicone.svg"
   inkscape:export-filename="C:\Users\Gabriel\image.png"
   inkscape:export-xdpi="400"
   inkscape:export-ydpi="400">
  <defs
     id="defs2">
    <clipPath
       clipPathUnits="userSpaceOnUse"
       id="clipPath883">
      <rect
         style="fill:none;fill-opacity:1;stroke:#000000;stroke-width:1;stroke-miterlimit:4;stroke-dasharray:none;stroke-opacity:1"
         id="rect885"
         width="35.860493"
         height="31.41927"
         x="52.113464"
         y="98.893227" />
    </clipPath>
    <clipPath
       clipPathUnits="userSpaceOnUse"
       id="clipPath887">
      <rect
         style="fill:none;fill-opacity:1;stroke:#000000;stroke-width:1;stroke-miterlimit:4;stroke-dasharray:none;stroke-opacity:1"
         id="rect889"
         width="35.860493"
         height="31.41927"
         x="52.113464"
         y="98.893227" />
    </clipPath>
    <clipPath
       clipPathUnits="userSpaceOnUse"
       id="clipPath891">
      <rect
         style="fill:none;fill-opacity:1;stroke:#000000;stroke-width:1;stroke-miterlimit:4;stroke-dasharray:none;stroke-opacity:1"
         id="rect893"
         width="35.860493"
         height="31.41927"
         x="52.113464"
         y="98.893227" />
    </clipPath>
    <clipPath
       clipPathUnits="userSpaceOnUse"
       id="clipPath895">
      <rect
         style="fill:none;fill-opacity:1;stroke:#000000;stroke-width:1;stroke-miterlimit:4;stroke-dasharray:none;stroke-opacity:1"
         id="rect897"
         width="35.860493"
         height="31.41927"
         x="52.113464"
         y="98.893227" />
    </clipPath>
    <clipPath
       clipPathUnits="userSpaceOnUse"
       id="clipPath899">
      <rect
         style="fill:none;fill-opacity:1;stroke:#000000;stroke-width:1;stroke-miterlimit:4;stroke-dasharray:none;stroke-opacity:1"
         id="rect901"
         width="35.860493"
         height="31.41927"
         x="52.113464"
         y="98.893227" />
    </clipPath>
  </defs>
  <sodipodi:namedview
     id="base"
     pagecolor="#ffffff"
     bordercolor="#666666"
     borderopacity="1.0"
     inkscape:pageopacity="0.0"
     inkscape:pageshadow="2"
     inkscape:zoom="0.70710678"
     inkscape:cx="776.67335"
     inkscape:cy="633.90311"
     inkscape:document-units="mm"
     inkscape:current-layer="layer1"
     showgrid="true"
     inkscape:window-width="1920"
     inkscape:window-height="1137"
     inkscape:window-x="1912"
     inkscape:window-y="-8"
     inkscape:window-maximized="1">
    <inkscape:grid
       type="xygrid"
       id="grid880" />
  </sodipodi:namedview>
  <metadata
     id="metadata5">
    <rdf:RDF>
      <cc:Work
         rdf:about="">
        <dc:format>image/svg+xml</dc:format>
        <dc:type
           rdf:resource="http://purl.org/dc/dcmitype/StillImage" />
        <dc:title></dc:title>
      </cc:Work>
    </rdf:RDF>
  </metadata>
  <g
     inkscape:label="Calque 1"
     inkscape:groupmode="layer"
     id="layer1">
    <g
       id="g954"
       inkscape:export-xdpi="400"
       inkscape:export-ydpi="400"
       transform="matrix(4.3852934,0,0,4.3852934,-158.79663,-408.50578)">
      <path
         sodipodi:nodetypes="ccccccccccccccccc"
         inkscape:export-ydpi="400"
         inkscape:export-xdpi="400"
         inkscape:connector-curvature="0"
         id="path907"
         d="m 54.504167,127.1375 v -0.79375 h 1.5875 V 125.55 H 58.7375 v 0.79375 H 60.325 V 125.55 h 2.645833 v 0.79375 h 1.5875 V 125.55 h 2.645834 v 0.79375 h 1.5875 v 0.79375 z"
         style="fill:#808000;fill-opacity:1;stroke:#000000;stroke-width:0.1;stroke-miterlimit:4;stroke-dasharray:none;stroke-opacity:1" />
      <text
         inkscape:export-ydpi="400"
         inkscape:export-xdpi="400"
         id="text913-3"
         y="121.74282"
         x="55.566437"
         style="font-style:normal;font-weight:normal;font-size:10.58333302px;line-height:1.25;font-family:sans-serif;letter-spacing:0px;word-spacing:0px;fill:#000000;fill-opacity:1;stroke:none;stroke-width:0.26458332"
         xml:space="preserve"><tspan
           id="tspan943"
           style="font-size:1.41111112px;stroke-width:0.26458332"
           y="121.74282"
           x="55.566437"
           sodipodi:role="line">Silicone</tspan><tspan
           id="tspan856"
           style="font-size:1.41111112px;stroke-width:0.26458332"
           y="134.97198"
           x="55.566437"
           sodipodi:role="line" /></text>
      <path
         inkscape:export-ydpi="400"
         inkscape:export-xdpi="400"
         inkscape:connector-curvature="0"
         id="path947"
         d="m 59.972966,126.52644 -1.520098,-4.04245"
         style="fill:none;stroke:#000000;stroke-width:0.26499999;stroke-linecap:round;stroke-linejoin:miter;stroke-miterlimit:4;stroke-dasharray:none;stroke-opacity:1" />
      <rect
         ry="0"
         inkscape:export-ydpi="400"
         inkscape:export-xdpi="400"
         y="127.1375"
         x="54.504166"
         height="0.52916974"
         width="14.287501"
         id="rect949"
         style="fill:none;fill-opacity:1;stroke:#000000;stroke-width:0.1;stroke-linecap:butt;stroke-linejoin:miter;stroke-miterlimit:4;stroke-dasharray:none;stroke-opacity:1" />
      <text
         inkscape:export-ydpi="400"
         inkscape:export-xdpi="400"
         id="text913-3-7"
         y="130.98439"
         x="57.440868"
         style="font-style:normal;font-weight:normal;font-size:10.58333302px;line-height:1.25;font-family:sans-serif;letter-spacing:0px;word-spacing:0px;fill:#000000;fill-opacity:1;stroke:none;stroke-width:0.26458332"
         xml:space="preserve"><tspan
           id="tspan943-5"
           style="font-size:1.41111112px;stroke-width:0.26458332"
           y="130.98439"
           x="57.440868"
           sodipodi:role="line">Dalle tactile</tspan></text>
      <path
         inkscape:export-ydpi="400"
         inkscape:export-xdpi="400"
         inkscape:connector-curvature="0"
         id="path969"
         d="m 60.060417,129.25417 3.908817,-1.87089"
         style="fill:none;stroke:#000000;stroke-width:0.26458332px;stroke-linecap:round;stroke-linejoin:miter;stroke-opacity:1" />
      <text
         transform="scale(0.87897986,1.1376825)"
         id="text860"
         y="111.47791"
         x="60.152683"
         style="font-style:normal;font-weight:normal;font-size:1.60539639px;line-height:1.25;font-family:sans-serif;letter-spacing:0px;word-spacing:0px;fill:#000000;fill-opacity:1;stroke:none;stroke-width:0.30101183"
         xml:space="preserve"><tspan
           style="font-size:1.60539639px;stroke-width:0.30101183"
           y="111.47791"
           x="60.152683"
           id="tspan858"
           sodipodi:role="line">{</tspan></text>
      <text
         transform="scale(0.94522586,1.0579482)"
         id="text860-5"
         y="119.85876"
         x="49.508648"
         style="font-style:normal;font-weight:normal;font-size:1.49288249px;line-height:1.25;font-family:sans-serif;letter-spacing:0px;word-spacing:0px;fill:#000000;fill-opacity:1;stroke:none;stroke-width:0.27991545"
         xml:space="preserve"><tspan
           style="font-size:1.49288249px;stroke-width:0.27991545"
           y="119.85876"
           x="49.508648"
           id="tspan858-1"
           sodipodi:role="line">2-5 mm</tspan></text>
      <path
         inkscape:connector-curvature="0"
         id="path925"
         d="m 62.653291,124.6343 c 0.0938,-0.009 0.39173,-0.18266 0.662063,-0.3858 0.46968,-0.35295 0.494519,-0.36169 0.559155,-0.19661 0.0427,0.10906 0.140559,0.19183 0.265419,0.2245 0.123018,0.0322 0.22288,0.11586 0.264185,0.22135 0.08408,0.21473 0.352052,0.35968 0.551913,0.29853 0.09336,-0.0286 0.19935,0.0135 0.269569,0.10692 0.199465,0.26543 0.352841,0.23481 0.906001,-0.18087 0.583178,-0.43824 0.969954,-0.94175 0.978586,-1.27392 0.0041,-0.15694 0.08207,-0.27859 0.268335,-0.41857 l 0.262584,-0.19732 -0.621975,-0.82768 -0.621975,-0.82767 -0.240923,0.18104 c -0.215388,0.16186 -0.267857,0.16358 -0.495039,0.0162 -0.560511,-0.36356 -1.272386,-0.25804 -1.875181,0.27796 -0.278315,0.24747 -0.33518,0.34798 -0.335524,0.59303 -2.27e-4,0.16227 0.04244,0.35207 0.09481,0.42177 0.136818,0.18206 0.04499,0.29548 -0.680777,0.84088 -0.42322,0.31804 -0.651319,0.53434 -0.658063,0.62402 -0.01636,0.21751 0.253539,0.52086 0.446834,0.50222 z m -0.306472,-0.42053 c -0.03401,-0.16279 0.03227,-0.233 0.678333,-0.7185 0.691462,-0.51961 0.72128,-0.53369 0.869089,-0.41027 0.323618,0.27022 0.324315,0.26892 -0.459045,0.85759 -0.497569,0.37391 -0.787874,0.54925 -0.878051,0.53033 -0.163336,-0.0343 -0.163348,-0.0343 -0.210326,-0.25915 z m 1.748638,-0.53135 c 0.167837,-0.15763 0.191034,-0.15475 0.338945,0.0421 0.13979,0.18602 0.138301,0.22667 -0.01245,0.33996 -0.208111,0.15639 -0.303049,0.14305 -0.418524,-0.0588 -0.06456,-0.11284 -0.03993,-0.19933 0.09203,-0.32326 z m 0.462872,0.54469 c 0.201914,-0.26705 0.716554,-0.54536 0.875647,-0.47353 0.276964,0.12504 0.197268,0.37343 -0.220558,0.68742 -0.416892,0.31328 -0.472111,0.32107 -0.644985,0.091 -0.08218,-0.10937 -0.08537,-0.20537 -0.0101,-0.30492 z m 1.004279,0.16733 c 0.307358,-0.23097 0.333298,-0.2351 0.455497,-0.0725 0.122269,0.16271 0.111112,0.18631 -0.197771,0.41843 -0.207536,0.15595 -0.360706,0.22168 -0.418488,0.17957 -0.20287,-0.14783 -0.161389,-0.28343 0.160762,-0.52551 z m -1.263211,-1.10127 c 0.03324,-0.025 0.09404,-6.9e-4 0.135122,0.054 0.04108,0.0547 0.116298,0.0981 0.167155,0.0966 0.05277,-0.002 0.03344,-0.0813 -0.04502,-0.18575 -0.0939,-0.12495 -0.184404,-0.1656 -0.285465,-0.1282 -0.12674,0.0469 -0.191566,-0.003 -0.451723,-0.34945 -0.272449,-0.36256 -0.296417,-0.4293 -0.232607,-0.6477 0.09101,-0.31148 0.632263,-0.71171 1.081911,-0.8 0.448007,-0.088 0.778978,-0.0158 1.030174,0.22457 0.196248,0.18781 0.227406,0.18958 0.445997,0.0253 l 0.235008,-0.1766 0.518313,0.68973 0.518313,0.68973 -0.202693,0.15232 c -0.131416,0.0988 -0.214234,0.2541 -0.235513,0.44175 -0.05316,0.4688 -0.710034,1.23687 -0.807179,0.94381 -0.0224,-0.0676 -0.120849,-0.16537 -0.218781,-0.21734 -0.09793,-0.052 -0.347752,-0.31726 -0.555156,-0.58953 -0.207403,-0.27228 -0.42278,-0.50975 -0.478616,-0.52771 -0.05584,-0.018 -0.160267,-0.14914 -0.232069,-0.29151 l -0.130548,-0.25884 0.485421,0.20599 c 0.488552,0.20731 1.026022,0.24537 1.122295,0.0795 0.03062,-0.0528 -0.03134,-0.0712 -0.151104,-0.045 -0.255078,0.0559 -0.72714,-0.0414 -1.141747,-0.23529 -0.56613,-0.26471 -0.677765,-0.17365 -0.340649,0.27784 0.118984,0.15936 0.240161,0.39282 0.269283,0.5188 0.06061,0.26221 -0.07644,0.4726 -0.255762,0.39264 -0.166966,-0.0745 -0.317957,-0.28432 -0.244357,-0.33963 z m 0.616292,-0.0607 c -0.04023,-0.0535 -0.0223,-0.0702 0.05745,-0.0535 0.169822,0.0356 0.230431,0.29816 0.09273,0.40164 -0.107925,0.0811 -0.117489,0.0729 -0.1052,-0.0905 0.0074,-0.0989 -0.01281,-0.21478 -0.04498,-0.2576 z"
         style="fill:#000000;stroke-width:0.08075988" />
    </g>
  </g>
</svg>
